%TF.GenerationSoftware,Altium Limited,Altium Designer,25.5.2 (35)*%
G04 Layer_Color=255*
%FSLAX45Y45*%
%MOMM*%
%TF.SameCoordinates,6948D1F0-C69E-42BD-806E-39CAA59B2E28*%
%TF.FilePolarity,Positive*%
%TF.FileFunction,Pads,Bot*%
%TF.Part,Single*%
G01*
G75*
%TA.AperFunction,WasherPad*%
%ADD13C,1.15200*%
%TA.AperFunction,ComponentPad*%
%ADD14C,1.60000*%
%ADD15R,1.60000X1.60000*%
%ADD16C,1.02000*%
%ADD17R,1.60000X1.60000*%
D13*
X-16050565Y-5148683D02*
D03*
X64396Y-5142604D02*
D03*
Y12129380D02*
D03*
X-16050565Y12135460D02*
D03*
D14*
X-1897001Y-1707876D02*
D03*
X-3167001D02*
D03*
X-6977001D02*
D03*
X-7993001D02*
D03*
X-9771001Y-4501876D02*
D03*
X-15359001Y-1707876D02*
D03*
X-11295001D02*
D03*
X-13073001D02*
D03*
X-15113002Y11531599D02*
D03*
X-14859003D02*
D03*
X-15367001Y11277599D02*
D03*
X-14859003D02*
D03*
X-15113002D02*
D03*
X-15367001Y11531599D02*
D03*
X-15621002D02*
D03*
Y11277599D02*
D03*
X-373001Y-4501876D02*
D03*
Y-4247876D02*
D03*
X-627001Y-4501876D02*
D03*
Y-4247876D02*
D03*
X-881001Y-4501876D02*
D03*
Y-4247876D02*
D03*
X-1135001Y-4501876D02*
D03*
Y-4247876D02*
D03*
X-373001Y-1707876D02*
D03*
Y-1453876D02*
D03*
X-627001Y-1707876D02*
D03*
Y-1453876D02*
D03*
X-881001Y-1707876D02*
D03*
Y-1453876D02*
D03*
X-1135001Y-1707876D02*
D03*
Y-1453876D02*
D03*
X-1389001Y-1707876D02*
D03*
Y-1453876D02*
D03*
X-1643001Y-1707876D02*
D03*
Y-1453876D02*
D03*
X-1897001D02*
D03*
X-2659001Y11500124D02*
D03*
Y11246124D02*
D03*
X-2405001Y11500124D02*
D03*
Y11246124D02*
D03*
X-2151001Y11500124D02*
D03*
Y11246124D02*
D03*
X-1897001Y11500124D02*
D03*
Y11246124D02*
D03*
X-1643001Y11500124D02*
D03*
Y11246124D02*
D03*
X-1389001Y11500124D02*
D03*
Y11246124D02*
D03*
X-1135001D02*
D03*
X-627001Y11500124D02*
D03*
X-1135001D02*
D03*
X-881001D02*
D03*
Y11246124D02*
D03*
X-627001D02*
D03*
X-373001Y11500124D02*
D03*
Y11246124D02*
D03*
X-3167001Y-1453876D02*
D03*
X-2659001Y-1707876D02*
D03*
X-2913001Y-1453876D02*
D03*
Y-1707876D02*
D03*
X-3167001Y-4247876D02*
D03*
Y-4501876D02*
D03*
X-2913001Y-4247876D02*
D03*
Y-4501876D02*
D03*
X-2659001Y-4247876D02*
D03*
Y-4501876D02*
D03*
X-2405001Y-4247876D02*
D03*
Y-4501876D02*
D03*
X-2151001Y-4247876D02*
D03*
Y-4501876D02*
D03*
X-1897001Y-4247876D02*
D03*
Y-4501876D02*
D03*
X-4691001Y-4247876D02*
D03*
Y-4501876D02*
D03*
X-4437001Y-4247876D02*
D03*
Y-4501876D02*
D03*
X-4183001Y-4247876D02*
D03*
Y-4501876D02*
D03*
X-3929001Y-4247876D02*
D03*
Y-4501876D02*
D03*
X-5199001Y-1453876D02*
D03*
Y-1707876D02*
D03*
X-4945001Y-1453876D02*
D03*
Y-1707876D02*
D03*
X-4691001Y-1453876D02*
D03*
Y-1707876D02*
D03*
X-4437001Y-1453876D02*
D03*
Y-1707876D02*
D03*
X-4183001Y-1453876D02*
D03*
Y-1707876D02*
D03*
X-3929001Y-1453876D02*
D03*
Y-1707876D02*
D03*
X-3421001Y11246124D02*
D03*
Y11500124D02*
D03*
X-3675001Y11246124D02*
D03*
X-3929001D02*
D03*
Y11500124D02*
D03*
X-4183001D02*
D03*
X-3675001D02*
D03*
X-4183001Y11246124D02*
D03*
X-4437001D02*
D03*
Y11500124D02*
D03*
X-4691001Y11246124D02*
D03*
Y11500124D02*
D03*
X-4945001Y11246124D02*
D03*
Y11500124D02*
D03*
X-5199001Y11246124D02*
D03*
Y11500124D02*
D03*
X-5453001Y11246124D02*
D03*
Y11500124D02*
D03*
X-5707001Y11246124D02*
D03*
Y11500124D02*
D03*
X-5961001Y-4247876D02*
D03*
X-5453001Y-4501876D02*
D03*
X-5707001Y-4247876D02*
D03*
X-5961001Y-4501876D02*
D03*
X-5707001D02*
D03*
X-5961001Y-1707876D02*
D03*
Y-1453876D02*
D03*
X-6215001Y-1707876D02*
D03*
Y-1453876D02*
D03*
X-6469001Y-1707876D02*
D03*
Y-1453876D02*
D03*
X-6723001Y-1707876D02*
D03*
Y-1453876D02*
D03*
X-6977001D02*
D03*
X-6469001Y11246124D02*
D03*
Y11500124D02*
D03*
X-6723001Y11246124D02*
D03*
Y11500124D02*
D03*
X-6977001Y11246124D02*
D03*
Y11500124D02*
D03*
X-7231001Y11246124D02*
D03*
Y11500124D02*
D03*
X-7739001Y-1707876D02*
D03*
X-7993001Y-1453876D02*
D03*
X-6723001Y-4501876D02*
D03*
Y-4247876D02*
D03*
X-6977001Y-4501876D02*
D03*
Y-4247876D02*
D03*
X-7231001Y-4501876D02*
D03*
Y-4247876D02*
D03*
X-7485001Y-4501876D02*
D03*
Y-4247876D02*
D03*
X-7739001Y-4501876D02*
D03*
Y-4247876D02*
D03*
X-7993001Y-4501876D02*
D03*
Y-4247876D02*
D03*
X-8247001Y-4501876D02*
D03*
Y-4247876D02*
D03*
X-8501001Y-4501876D02*
D03*
Y-4247876D02*
D03*
X-8755001Y-1707876D02*
D03*
X-9771001Y-1453876D02*
D03*
X-9517001Y-1707876D02*
D03*
X-9771001D02*
D03*
X-9517001Y-4501876D02*
D03*
Y-4247876D02*
D03*
X-9263001Y-4501876D02*
D03*
X-9771001Y-4247876D02*
D03*
X-10533001Y-1707876D02*
D03*
Y-1453876D02*
D03*
X-10787001Y-1707876D02*
D03*
Y-1453876D02*
D03*
X-11041001Y-1707876D02*
D03*
Y-1453876D02*
D03*
X-11295001D02*
D03*
X-13081001Y11531599D02*
D03*
Y11277599D02*
D03*
X-12827002Y11531599D02*
D03*
Y11277599D02*
D03*
X-12573002Y11531599D02*
D03*
Y11277599D02*
D03*
X-12319002Y11531599D02*
D03*
Y11277599D02*
D03*
X-12065002Y11531599D02*
D03*
Y11277599D02*
D03*
X-11811002Y11531599D02*
D03*
Y11277599D02*
D03*
X-13073001Y-1453876D02*
D03*
X-12819000D02*
D03*
Y-1707876D02*
D03*
X-12565001Y-1453876D02*
D03*
Y-1707876D02*
D03*
X-12311001Y-1453876D02*
D03*
Y-1707876D02*
D03*
X-12057001Y-1453876D02*
D03*
Y-1707876D02*
D03*
X-13843002Y11277599D02*
D03*
Y11531599D02*
D03*
X-14097002Y11277599D02*
D03*
Y11531599D02*
D03*
X-14351003Y11277599D02*
D03*
Y11531599D02*
D03*
X-14605002Y11277599D02*
D03*
Y11531599D02*
D03*
X-13835001Y-1707876D02*
D03*
Y-1453876D02*
D03*
X-14089001Y-1707876D02*
D03*
Y-1453876D02*
D03*
X-14343001Y-1707876D02*
D03*
Y-1453876D02*
D03*
X-14597002Y-1707876D02*
D03*
Y-1453876D02*
D03*
X-14851001Y-1707876D02*
D03*
Y-1453876D02*
D03*
X-15105000Y-1707876D02*
D03*
Y-1453876D02*
D03*
X-15359001D02*
D03*
D15*
X-2659001D02*
D03*
X-5453001Y-4247876D02*
D03*
X-7739001Y-1453876D02*
D03*
X-9517001D02*
D03*
X-9263001Y-4247876D02*
D03*
D16*
X-3617500Y716645D02*
D03*
X-8443500D02*
D03*
X-3769900Y9268825D02*
D03*
X-8595900D02*
D03*
X-10272300Y716645D02*
D03*
X-15098300D02*
D03*
X-10272300Y9268825D02*
D03*
X-15098300D02*
D03*
D17*
X-8755001Y-1453876D02*
D03*
%TF.MD5,48eea50bd828cac7cbbd39c24869b648*%
M02*
