%TF.GenerationSoftware,Altium Limited,Altium Designer,25.5.2 (35)*%
G04 Layer_Color=8421504*
%FSLAX45Y45*%
%MOMM*%
%TF.SameCoordinates,6948D1F0-C69E-42BD-806E-39CAA59B2E28*%
%TF.FilePolarity,Positive*%
%TF.FileFunction,Paste,Top*%
%TF.Part,Single*%
G01*
G75*
%TA.AperFunction,SMDPad,SMDef*%
%ADD10R,0.74000X2.79000*%
D10*
X-3706400Y9472325D02*
D03*
X-3833400D02*
D03*
Y9065325D02*
D03*
X-5992400D02*
D03*
X-3706400D02*
D03*
X-5992400Y9472325D02*
D03*
X-6246400D02*
D03*
X-7516400D02*
D03*
X-6373400D02*
D03*
Y9065325D02*
D03*
X-7516400D02*
D03*
X-3554000Y920145D02*
D03*
X-3681000D02*
D03*
X-3554000Y513145D02*
D03*
X-3681000D02*
D03*
X-10208800Y9472325D02*
D03*
Y9065325D02*
D03*
X-10335800Y9472325D02*
D03*
Y9065325D02*
D03*
X-10208800Y920145D02*
D03*
X-10335800D02*
D03*
X-11351800Y9472325D02*
D03*
X-13256799D02*
D03*
X-14907800Y9065325D02*
D03*
X-11351800D02*
D03*
X-13256799D02*
D03*
X-10335800Y513145D02*
D03*
X-10208800D02*
D03*
X-8507000D02*
D03*
Y920145D02*
D03*
X-8380000Y513145D02*
D03*
Y920145D02*
D03*
X-8253000Y513145D02*
D03*
Y920145D02*
D03*
X-8126000Y513145D02*
D03*
Y920145D02*
D03*
X-7999000Y513145D02*
D03*
Y920145D02*
D03*
X-7872000Y513145D02*
D03*
Y920145D02*
D03*
X-7745000Y513145D02*
D03*
Y920145D02*
D03*
X-7618000Y513145D02*
D03*
Y920145D02*
D03*
X-7491000Y513145D02*
D03*
Y920145D02*
D03*
X-7364000Y513145D02*
D03*
Y920145D02*
D03*
X-7237000Y513145D02*
D03*
Y920145D02*
D03*
X-7110000Y513145D02*
D03*
Y920145D02*
D03*
X-6983000Y513145D02*
D03*
Y920145D02*
D03*
X-6856000Y513145D02*
D03*
Y920145D02*
D03*
X-6729000Y513145D02*
D03*
Y920145D02*
D03*
X-6602000Y513145D02*
D03*
Y920145D02*
D03*
X-6475000Y513145D02*
D03*
Y920145D02*
D03*
X-6348000Y513145D02*
D03*
Y920145D02*
D03*
X-6221000Y513145D02*
D03*
Y920145D02*
D03*
X-6094000Y513145D02*
D03*
Y920145D02*
D03*
X-5967000Y513145D02*
D03*
Y920145D02*
D03*
X-5840000Y513145D02*
D03*
Y920145D02*
D03*
X-5713000Y513145D02*
D03*
Y920145D02*
D03*
X-5586000Y513145D02*
D03*
Y920145D02*
D03*
X-5459000Y513145D02*
D03*
Y920145D02*
D03*
X-5332000Y513145D02*
D03*
Y920145D02*
D03*
X-5205000Y513145D02*
D03*
Y920145D02*
D03*
X-5078000Y513145D02*
D03*
Y920145D02*
D03*
X-4951000Y513145D02*
D03*
Y920145D02*
D03*
X-4824000Y513145D02*
D03*
Y920145D02*
D03*
X-4697000Y513145D02*
D03*
Y920145D02*
D03*
X-4570000Y513145D02*
D03*
Y920145D02*
D03*
X-4443000Y513145D02*
D03*
Y920145D02*
D03*
X-4316000Y513145D02*
D03*
Y920145D02*
D03*
X-4189000Y513145D02*
D03*
Y920145D02*
D03*
X-4062000Y513145D02*
D03*
Y920145D02*
D03*
X-3935000Y513145D02*
D03*
Y920145D02*
D03*
X-3808000Y513145D02*
D03*
Y920145D02*
D03*
X-8659400Y9065325D02*
D03*
Y9472325D02*
D03*
X-8532400Y9065325D02*
D03*
Y9472325D02*
D03*
X-8405400Y9065325D02*
D03*
Y9472325D02*
D03*
X-8278400Y9065325D02*
D03*
Y9472325D02*
D03*
X-8151400Y9065325D02*
D03*
Y9472325D02*
D03*
X-8024400Y9065325D02*
D03*
Y9472325D02*
D03*
X-7897400Y9065325D02*
D03*
Y9472325D02*
D03*
X-7770400Y9065325D02*
D03*
Y9472325D02*
D03*
X-7643400Y9065325D02*
D03*
Y9472325D02*
D03*
X-7389400Y9065325D02*
D03*
Y9472325D02*
D03*
X-7262400Y9065325D02*
D03*
Y9472325D02*
D03*
X-7135400Y9065325D02*
D03*
Y9472325D02*
D03*
X-7008400Y9065325D02*
D03*
Y9472325D02*
D03*
X-6881400Y9065325D02*
D03*
Y9472325D02*
D03*
X-6754400Y9065325D02*
D03*
Y9472325D02*
D03*
X-6627400Y9065325D02*
D03*
Y9472325D02*
D03*
X-6500400Y9065325D02*
D03*
Y9472325D02*
D03*
X-6246400Y9065325D02*
D03*
X-6119400D02*
D03*
Y9472325D02*
D03*
X-5865400Y9065325D02*
D03*
Y9472325D02*
D03*
X-5738400Y9065325D02*
D03*
Y9472325D02*
D03*
X-5611400Y9065325D02*
D03*
Y9472325D02*
D03*
X-5484400Y9065325D02*
D03*
Y9472325D02*
D03*
X-5357400Y9065325D02*
D03*
Y9472325D02*
D03*
X-5230400Y9065325D02*
D03*
Y9472325D02*
D03*
X-5103400Y9065325D02*
D03*
Y9472325D02*
D03*
X-4976400Y9065325D02*
D03*
Y9472325D02*
D03*
X-4849400Y9065325D02*
D03*
Y9472325D02*
D03*
X-4722400Y9065325D02*
D03*
Y9472325D02*
D03*
X-4595400Y9065325D02*
D03*
Y9472325D02*
D03*
X-4468400Y9065325D02*
D03*
Y9472325D02*
D03*
X-4341400Y9065325D02*
D03*
Y9472325D02*
D03*
X-4214400Y9065325D02*
D03*
Y9472325D02*
D03*
X-4087400Y9065325D02*
D03*
Y9472325D02*
D03*
X-3960400Y9065325D02*
D03*
Y9472325D02*
D03*
X-15161800Y513145D02*
D03*
Y920145D02*
D03*
X-15034801Y513145D02*
D03*
Y920145D02*
D03*
X-14907800Y513145D02*
D03*
Y920145D02*
D03*
X-14780800Y513145D02*
D03*
Y920145D02*
D03*
X-14653799Y513145D02*
D03*
Y920145D02*
D03*
X-14526801Y513145D02*
D03*
Y920145D02*
D03*
X-14399800Y513145D02*
D03*
Y920145D02*
D03*
X-14272800Y513145D02*
D03*
Y920145D02*
D03*
X-14145799Y513145D02*
D03*
Y920145D02*
D03*
X-14018800Y513145D02*
D03*
Y920145D02*
D03*
X-13891800Y513145D02*
D03*
Y920145D02*
D03*
X-13764799Y513145D02*
D03*
Y920145D02*
D03*
X-13637801Y513145D02*
D03*
Y920145D02*
D03*
X-13510800Y513145D02*
D03*
Y920145D02*
D03*
X-13383800Y513145D02*
D03*
Y920145D02*
D03*
X-13256799Y513145D02*
D03*
Y920145D02*
D03*
X-13129800Y513145D02*
D03*
Y920145D02*
D03*
X-13002800Y513145D02*
D03*
Y920145D02*
D03*
X-12875800Y513145D02*
D03*
Y920145D02*
D03*
X-12748800Y513145D02*
D03*
Y920145D02*
D03*
X-12621800Y513145D02*
D03*
Y920145D02*
D03*
X-12494800Y513145D02*
D03*
Y920145D02*
D03*
X-12367800Y513145D02*
D03*
Y920145D02*
D03*
X-12240800Y513145D02*
D03*
Y920145D02*
D03*
X-12113800Y513145D02*
D03*
Y920145D02*
D03*
X-11986800Y513145D02*
D03*
Y920145D02*
D03*
X-11859800Y513145D02*
D03*
Y920145D02*
D03*
X-11732800Y513145D02*
D03*
Y920145D02*
D03*
X-11605800Y513145D02*
D03*
Y920145D02*
D03*
X-11478800Y513145D02*
D03*
Y920145D02*
D03*
X-11351800Y513145D02*
D03*
Y920145D02*
D03*
X-11224800Y513145D02*
D03*
Y920145D02*
D03*
X-11097800Y513145D02*
D03*
Y920145D02*
D03*
X-10970800Y513145D02*
D03*
Y920145D02*
D03*
X-10843800Y513145D02*
D03*
Y920145D02*
D03*
X-10716800Y513145D02*
D03*
Y920145D02*
D03*
X-10589800Y513145D02*
D03*
Y920145D02*
D03*
X-10462800Y513145D02*
D03*
Y920145D02*
D03*
X-15161800Y9065325D02*
D03*
Y9472325D02*
D03*
X-15034801Y9065325D02*
D03*
Y9472325D02*
D03*
X-14907800D02*
D03*
X-14780800Y9065325D02*
D03*
Y9472325D02*
D03*
X-14653799Y9065325D02*
D03*
Y9472325D02*
D03*
X-14526801Y9065325D02*
D03*
Y9472325D02*
D03*
X-14399800Y9065325D02*
D03*
Y9472325D02*
D03*
X-14272800Y9065325D02*
D03*
Y9472325D02*
D03*
X-14145799Y9065325D02*
D03*
Y9472325D02*
D03*
X-14018800Y9065325D02*
D03*
Y9472325D02*
D03*
X-13891800Y9065325D02*
D03*
Y9472325D02*
D03*
X-13764799Y9065325D02*
D03*
Y9472325D02*
D03*
X-13637801Y9065325D02*
D03*
Y9472325D02*
D03*
X-13510800Y9065325D02*
D03*
Y9472325D02*
D03*
X-13383800Y9065325D02*
D03*
Y9472325D02*
D03*
X-13129800Y9065325D02*
D03*
Y9472325D02*
D03*
X-13002800Y9065325D02*
D03*
Y9472325D02*
D03*
X-12875800Y9065325D02*
D03*
Y9472325D02*
D03*
X-12748800Y9065325D02*
D03*
Y9472325D02*
D03*
X-12621800Y9065325D02*
D03*
Y9472325D02*
D03*
X-12494800Y9065325D02*
D03*
Y9472325D02*
D03*
X-12367800Y9065325D02*
D03*
Y9472325D02*
D03*
X-12240800Y9065325D02*
D03*
Y9472325D02*
D03*
X-12113800Y9065325D02*
D03*
Y9472325D02*
D03*
X-11986800Y9065325D02*
D03*
Y9472325D02*
D03*
X-11859800Y9065325D02*
D03*
Y9472325D02*
D03*
X-11732800Y9065325D02*
D03*
Y9472325D02*
D03*
X-11605800Y9065325D02*
D03*
Y9472325D02*
D03*
X-11478800Y9065325D02*
D03*
Y9472325D02*
D03*
X-11224800Y9065325D02*
D03*
Y9472325D02*
D03*
X-11097800Y9065325D02*
D03*
Y9472325D02*
D03*
X-10970800Y9065325D02*
D03*
Y9472325D02*
D03*
X-10843800Y9065325D02*
D03*
Y9472325D02*
D03*
X-10716800Y9065325D02*
D03*
Y9472325D02*
D03*
X-10589800Y9065325D02*
D03*
Y9472325D02*
D03*
X-10462800Y9065325D02*
D03*
Y9472325D02*
D03*
%TF.MD5,e0bcd4ca5f6c5d800834cb5573b241d0*%
M02*
